# xmcd
#
# Track frame offsets: 
#        150
#        19431
#        35067
#        54187
#        64639
#        81032
#        98720
#        114166
#        136417
#        153646
#        164746
#        180004
#        198017
#        215381
#        235310
#        250891
#        268634
#        287133
#        302742
#        317324
#
# Disc length: 4481 seconds
#
# Revision: 0
# Processed by: cddbd v1.5.1PL0 Copyright (c) Steve Scherf et al.
# Submitted via: ExactAudioCopy v0.95a5
#
DISCID=0b117f14
DTITLE=Milionário e José Rico - Sucessos de Ouro
DYEAR=1900
DGENRE=sertaneja
TTITLE0=Quem disse que esqueci
TTITLE1=Boneca cobiçada
TTITLE2=Sonhei com você (Ao vivo)
TTITLE3=Vontade divina
TTITLE4=Te amar não faz sentido
TTITLE5=A Carta
TTITLE6=Eu Menti (Ao vivo)
TTITLE7=Se eu não puder te esquecer
TTITLE8=Aprendi a viver
TTITLE9=Meu Martírio
TTITLE10=Corpo e alma (Ao vivo)
TTITLE11=Volto pra casa
TTITLE12=Último julgamento
TTITLE13=Pra sempre
TTITLE14=Lembranças
TTITLE15=Tribunal do amor (Ao vivo)
TTITLE16=No colo da Noite
TTITLE17=Levando a vida (Ao vivo)
TTITLE18=Duas camisas (você agora vai decidir)
TTITLE19=Ausência
EXTD=
EXTT0=
EXTT1=
EXTT2=
EXTT3=
EXTT4=
EXTT5=
EXTT6=
EXTT7=
EXTT8=
EXTT9=
EXTT10=
EXTT11=
EXTT12=
EXTT13=
EXTT14=
EXTT15=
EXTT16=
EXTT17=
EXTT18=
EXTT19=
PLAYORDER=
